<svg width="101" height="16" viewBox="0 0 101 16" fill="none" xmlns="http://www.w3.org/2000/svg">
<path fill-rule="evenodd" clip-rule="evenodd" d="M7.94186 1.93299C7.82466 1.81582 7.66572 1.75 7.49999 1.75C7.33426 1.75 7.17532 1.81582 7.05812 1.93299L2.68311 6.30799L1.43311 7.55799C1.37342 7.61565 1.32581 7.68461 1.29305 7.76086C1.2603 7.83712 1.24305 7.91913 1.24233 8.00212C1.24161 8.0851 1.25743 8.1674 1.28885 8.24421C1.32028 8.32102 1.36668 8.39081 1.42537 8.44949C1.48405 8.50817 1.55383 8.55458 1.63064 8.586C1.70745 8.61743 1.78975 8.63324 1.87274 8.63252C1.95573 8.6318 2.03774 8.61456 2.11399 8.58181C2.19025 8.54905 2.25921 8.50144 2.31686 8.44174L2.49999 8.25862V12.3749C2.49999 12.8721 2.69753 13.3491 3.04916 13.7007C3.4008 14.0523 3.87771 14.2499 4.37499 14.2499H10.625C11.1223 14.2499 11.5992 14.0523 11.9508 13.7007C12.3024 13.3491 12.5 12.8721 12.5 12.3749V8.25862L12.6831 8.44174C12.801 8.55559 12.9589 8.61859 13.1227 8.61716C13.2866 8.61574 13.4434 8.55001 13.5593 8.43413C13.6751 8.31825 13.7409 8.16149 13.7423 7.99762C13.7437 7.83374 13.6807 7.67587 13.5669 7.55799L7.94186 1.93299Z" fill="white"/>
<path d="M20.876 12.5V4.1H22.172V7.7H25.7V4.1H26.996V12.5H25.7V8.876H22.172V12.5H20.876ZM31.559 12.668C30.967 12.668 30.439 12.548 29.975 12.308C29.519 12.06 29.159 11.708 28.895 11.252C28.631 10.796 28.499 10.256 28.499 9.632V9.452C28.499 8.828 28.631 8.292 28.895 7.844C29.159 7.388 29.519 7.036 29.975 6.788C30.439 6.54 30.967 6.416 31.559 6.416C32.151 6.416 32.679 6.54 33.143 6.788C33.607 7.036 33.971 7.388 34.235 7.844C34.499 8.292 34.631 8.828 34.631 9.452V9.632C34.631 10.256 34.499 10.796 34.235 11.252C33.971 11.708 33.607 12.06 33.143 12.308C32.679 12.548 32.151 12.668 31.559 12.668ZM31.559 11.564C32.103 11.564 32.543 11.392 32.879 11.048C33.223 10.696 33.395 10.212 33.395 9.596V9.488C33.395 8.872 33.227 8.392 32.891 8.048C32.555 7.696 32.111 7.52 31.559 7.52C31.023 7.52 30.583 7.696 30.239 8.048C29.903 8.392 29.735 8.872 29.735 9.488V9.596C29.735 10.212 29.903 10.696 30.239 11.048C30.583 11.392 31.023 11.564 31.559 11.564ZM38.4378 12.608C37.9898 12.608 37.5898 12.508 37.2378 12.308C36.8858 12.108 36.6098 11.824 36.4098 11.456C36.2098 11.088 36.1098 10.648 36.1098 10.136V6.584H37.3458V10.052C37.3458 10.564 37.4738 10.944 37.7298 11.192C37.9858 11.432 38.3418 11.552 38.7978 11.552C39.3018 11.552 39.7058 11.384 40.0098 11.048C40.3218 10.704 40.4778 10.212 40.4778 9.572V6.584H41.7138V12.5H40.5018V11.612H40.3098C40.1978 11.852 39.9978 12.08 39.7098 12.296C39.4218 12.504 38.9978 12.608 38.4378 12.608ZM45.9649 12.668C45.2129 12.668 44.5889 12.5 44.0929 12.164C43.5969 11.828 43.2929 11.32 43.1809 10.64L44.3329 10.364C44.3969 10.692 44.5049 10.952 44.6569 11.144C44.8089 11.336 44.9969 11.472 45.2209 11.552C45.4529 11.632 45.7009 11.672 45.9649 11.672C46.3569 11.672 46.6569 11.596 46.8649 11.444C47.0809 11.292 47.1889 11.096 47.1889 10.856C47.1889 10.616 47.0889 10.44 46.8889 10.328C46.6889 10.216 46.3929 10.124 46.0009 10.052L45.5929 9.98C45.1929 9.908 44.8289 9.804 44.5009 9.668C44.1729 9.532 43.9129 9.344 43.7209 9.104C43.5289 8.864 43.4329 8.556 43.4329 8.18C43.4329 7.62 43.6409 7.188 44.0569 6.884C44.4729 6.572 45.0249 6.416 45.7129 6.416C46.3769 6.416 46.9209 6.568 47.3449 6.872C47.7769 7.168 48.0569 7.572 48.1849 8.084L47.0329 8.408C46.9609 8.048 46.8089 7.796 46.5769 7.652C46.3449 7.5 46.0569 7.424 45.7129 7.424C45.3769 7.424 45.1129 7.488 44.9209 7.616C44.7289 7.736 44.6329 7.908 44.6329 8.132C44.6329 8.372 44.7249 8.548 44.9089 8.66C45.1009 8.772 45.3569 8.856 45.6769 8.912L46.0969 8.984C46.5209 9.056 46.9089 9.156 47.2609 9.284C47.6129 9.412 47.8889 9.596 48.0889 9.836C48.2969 10.076 48.4009 10.396 48.4009 10.796C48.4009 11.388 48.1809 11.848 47.7409 12.176C47.3009 12.504 46.7089 12.668 45.9649 12.668ZM52.5576 12.668C51.9576 12.668 51.4336 12.544 50.9856 12.296C50.5376 12.04 50.1856 11.684 49.9296 11.228C49.6816 10.764 49.5576 10.228 49.5576 9.62V9.476C49.5576 8.86 49.6816 8.324 49.9296 7.868C50.1776 7.404 50.5216 7.048 50.9616 6.8C51.4096 6.544 51.9256 6.416 52.5096 6.416C53.0776 6.416 53.5736 6.544 53.9976 6.8C54.4296 7.048 54.7656 7.396 55.0056 7.844C55.2456 8.292 55.3656 8.816 55.3656 9.416V9.884H50.8176C50.8336 10.404 51.0056 10.82 51.3336 11.132C51.6696 11.436 52.0856 11.588 52.5816 11.588C53.0456 11.588 53.3936 11.484 53.6256 11.276C53.8656 11.068 54.0496 10.828 54.1776 10.556L55.1976 11.084C55.0856 11.308 54.9216 11.544 54.7056 11.792C54.4976 12.04 54.2216 12.248 53.8776 12.416C53.5336 12.584 53.0936 12.668 52.5576 12.668ZM50.8296 8.936H54.1056C54.0736 8.488 53.9136 8.14 53.6256 7.892C53.3376 7.636 52.9616 7.508 52.4976 7.508C52.0336 7.508 51.6536 7.636 51.3576 7.892C51.0696 8.14 50.8936 8.488 50.8296 8.936ZM56.8534 12.5V4.1H58.0894V7.424H58.2814C58.3614 7.272 58.4734 7.124 58.6174 6.98C58.7694 6.836 58.9654 6.72 59.2054 6.632C59.4534 6.536 59.7654 6.488 60.1414 6.488C60.5894 6.488 60.9854 6.588 61.3294 6.788C61.6814 6.988 61.9574 7.272 62.1574 7.64C62.3574 8 62.4574 8.436 62.4574 8.948V12.5H61.2214V9.044C61.2214 8.532 61.0934 8.156 60.8374 7.916C60.5814 7.668 60.2294 7.544 59.7814 7.544C59.2694 7.544 58.8574 7.712 58.5454 8.048C58.2414 8.384 58.0894 8.872 58.0894 9.512V12.5H56.8534ZM66.4105 12.608C65.9625 12.608 65.5625 12.508 65.2105 12.308C64.8585 12.108 64.5825 11.824 64.3825 11.456C64.1825 11.088 64.0825 10.648 64.0825 10.136V6.584H65.3185V10.052C65.3185 10.564 65.4465 10.944 65.7025 11.192C65.9585 11.432 66.3145 11.552 66.7705 11.552C67.2745 11.552 67.6785 11.384 67.9825 11.048C68.2945 10.704 68.4505 10.212 68.4505 9.572V6.584H69.6865V12.5H68.4745V11.612H68.2825C68.1705 11.852 67.9705 12.08 67.6825 12.296C67.3945 12.504 66.9705 12.608 66.4105 12.608ZM71.5136 12.5V6.584H72.7256V7.472H72.9176C73.0296 7.232 73.2296 7.008 73.5176 6.8C73.8056 6.592 74.2336 6.488 74.8016 6.488C75.2496 6.488 75.6456 6.588 75.9896 6.788C76.3416 6.988 76.6176 7.272 76.8176 7.64C77.0176 8 77.1176 8.436 77.1176 8.948V12.5H75.8816V9.044C75.8816 8.532 75.7536 8.156 75.4976 7.916C75.2416 7.668 74.8896 7.544 74.4416 7.544C73.9296 7.544 73.5176 7.712 73.2056 8.048C72.9016 8.384 72.7496 8.872 72.7496 9.512V12.5H71.5136ZM80.9523 12.5C80.5923 12.5 80.3043 12.392 80.0883 12.176C79.8803 11.96 79.7763 11.672 79.7763 11.312V7.628H78.1443V6.584H79.7763V4.628H81.0123V6.584H82.7763V7.628H81.0123V11.096C81.0123 11.336 81.1243 11.456 81.3483 11.456H82.5843V12.5H80.9523ZM86.7295 12.668C86.1295 12.668 85.6055 12.544 85.1575 12.296C84.7095 12.04 84.3575 11.684 84.1015 11.228C83.8535 10.764 83.7295 10.228 83.7295 9.62V9.476C83.7295 8.86 83.8535 8.324 84.1015 7.868C84.3495 7.404 84.6935 7.048 85.1335 6.8C85.5815 6.544 86.0975 6.416 86.6815 6.416C87.2495 6.416 87.7455 6.544 88.1695 6.8C88.6015 7.048 88.9375 7.396 89.1775 7.844C89.4175 8.292 89.5375 8.816 89.5375 9.416V9.884H84.9895C85.0055 10.404 85.1775 10.82 85.5055 11.132C85.8415 11.436 86.2575 11.588 86.7535 11.588C87.2175 11.588 87.5655 11.484 87.7975 11.276C88.0375 11.068 88.2215 10.828 88.3495 10.556L89.3695 11.084C89.2575 11.308 89.0935 11.544 88.8775 11.792C88.6695 12.04 88.3935 12.248 88.0495 12.416C87.7055 12.584 87.2655 12.668 86.7295 12.668ZM85.0015 8.936H88.2775C88.2455 8.488 88.0855 8.14 87.7975 7.892C87.5095 7.636 87.1335 7.508 86.6695 7.508C86.2055 7.508 85.8255 7.636 85.5295 7.892C85.2415 8.14 85.0655 8.488 85.0015 8.936ZM91.0253 12.5V6.584H92.2373V7.28H92.4293C92.5253 7.032 92.6773 6.852 92.8853 6.74C93.1013 6.62 93.3653 6.56 93.6773 6.56H94.3853V7.676H93.6293C93.2293 7.676 92.9013 7.788 92.6453 8.012C92.3893 8.228 92.2613 8.564 92.2613 9.02V12.5H91.0253ZM97.961 12.668C97.209 12.668 96.585 12.5 96.089 12.164C95.593 11.828 95.289 11.32 95.177 10.64L96.329 10.364C96.393 10.692 96.501 10.952 96.653 11.144C96.805 11.336 96.993 11.472 97.217 11.552C97.449 11.632 97.697 11.672 97.961 11.672C98.353 11.672 98.653 11.596 98.861 11.444C99.077 11.292 99.185 11.096 99.185 10.856C99.185 10.616 99.085 10.44 98.885 10.328C98.685 10.216 98.389 10.124 97.997 10.052L97.589 9.98C97.189 9.908 96.825 9.804 96.497 9.668C96.169 9.532 95.909 9.344 95.717 9.104C95.525 8.864 95.429 8.556 95.429 8.18C95.429 7.62 95.637 7.188 96.053 6.884C96.469 6.572 97.021 6.416 97.709 6.416C98.373 6.416 98.917 6.568 99.341 6.872C99.773 7.168 100.053 7.572 100.181 8.084L99.029 8.408C98.957 8.048 98.805 7.796 98.573 7.652C98.341 7.5 98.053 7.424 97.709 7.424C97.373 7.424 97.109 7.488 96.917 7.616C96.725 7.736 96.629 7.908 96.629 8.132C96.629 8.372 96.721 8.548 96.905 8.66C97.097 8.772 97.353 8.856 97.673 8.912L98.093 8.984C98.517 9.056 98.905 9.156 99.257 9.284C99.609 9.412 99.885 9.596 100.085 9.836C100.293 10.076 100.397 10.396 100.397 10.796C100.397 11.388 100.177 11.848 99.737 12.176C99.297 12.504 98.705 12.668 97.961 12.668Z" fill="white"/>
</svg>
