<svg width="215" height="40" viewBox="0 0 215 40" fill="none" xmlns="http://www.w3.org/2000/svg">
<path d="M45.728 30V12.12H48.992V19.92H56.6V12.12H59.888V30H56.6V22.8H48.992V30H45.728ZM69.4496 30.288C68.1696 30.288 67.0016 29.992 65.9456 29.4C64.9056 28.808 64.0736 28 63.4496 26.976C62.8416 25.952 62.5376 24.784 62.5376 23.472C62.5376 22.16 62.8416 20.992 63.4496 19.968C64.0736 18.944 64.9056 18.136 65.9456 17.544C66.9856 16.952 68.1536 16.656 69.4496 16.656C70.7296 16.656 71.8896 16.952 72.9296 17.544C73.9696 18.136 74.7936 18.944 75.4016 19.968C76.0256 20.976 76.3376 22.144 76.3376 23.472C76.3376 24.784 76.0256 25.952 75.4016 26.976C74.7776 28 73.9456 28.808 72.9056 29.4C71.8656 29.992 70.7136 30.288 69.4496 30.288ZM69.4496 27.408C70.1536 27.408 70.7696 27.24 71.2976 26.904C71.8416 26.568 72.2656 26.104 72.5696 25.512C72.8896 24.904 73.0496 24.224 73.0496 23.472C73.0496 22.704 72.8896 22.032 72.5696 21.456C72.2656 20.864 71.8416 20.4 71.2976 20.064C70.7696 19.712 70.1536 19.536 69.4496 19.536C68.7296 19.536 68.0976 19.712 67.5536 20.064C67.0096 20.4 66.5776 20.864 66.2576 21.456C65.9536 22.032 65.8016 22.704 65.8016 23.472C65.8016 24.224 65.9536 24.904 66.2576 25.512C66.5776 26.104 67.0096 26.568 67.5536 26.904C68.0976 27.24 68.7296 27.408 69.4496 27.408ZM83.3778 30.288C82.3698 30.288 81.4898 30.064 80.7378 29.616C80.0018 29.168 79.4338 28.544 79.0338 27.744C78.6498 26.944 78.4578 26.008 78.4578 24.936V16.944H81.6018V24.672C81.6018 25.216 81.7058 25.696 81.9138 26.112C82.1378 26.512 82.4498 26.832 82.8498 27.072C83.2658 27.296 83.7298 27.408 84.2418 27.408C84.7538 27.408 85.2098 27.296 85.6098 27.072C86.0098 26.832 86.3218 26.504 86.5458 26.088C86.7698 25.672 86.8818 25.176 86.8818 24.6V16.944H90.0258V30H87.0498V27.432L87.3138 27.888C87.0098 28.688 86.5058 29.288 85.8018 29.688C85.1138 30.088 84.3058 30.288 83.3778 30.288ZM97.9164 30.288C96.5244 30.288 95.3084 29.96 94.2684 29.304C93.2444 28.632 92.5404 27.728 92.1564 26.592L94.5084 25.464C94.8444 26.2 95.3084 26.776 95.9004 27.192C96.5084 27.608 97.1804 27.816 97.9164 27.816C98.4924 27.816 98.9484 27.688 99.2844 27.432C99.6204 27.176 99.7884 26.84 99.7884 26.424C99.7884 26.168 99.7164 25.96 99.5724 25.8C99.4444 25.624 99.2604 25.48 99.0204 25.368C98.7964 25.24 98.5484 25.136 98.2764 25.056L96.1404 24.456C95.0364 24.136 94.1964 23.648 93.6204 22.992C93.0604 22.336 92.7804 21.56 92.7804 20.664C92.7804 19.864 92.9804 19.168 93.3804 18.576C93.7964 17.968 94.3644 17.496 95.0844 17.16C95.8204 16.824 96.6604 16.656 97.6044 16.656C98.8364 16.656 99.9244 16.952 100.868 17.544C101.812 18.136 102.484 18.968 102.884 20.04L100.484 21.168C100.26 20.576 99.8844 20.104 99.3564 19.752C98.8284 19.4 98.2364 19.224 97.5804 19.224C97.0524 19.224 96.6364 19.344 96.3324 19.584C96.0284 19.824 95.8764 20.136 95.8764 20.52C95.8764 20.76 95.9404 20.968 96.0684 21.144C96.1964 21.32 96.3724 21.464 96.5964 21.576C96.8364 21.688 97.1084 21.792 97.4124 21.888L99.5004 22.512C100.572 22.832 101.396 23.312 101.972 23.952C102.564 24.592 102.86 25.376 102.86 26.304C102.86 27.088 102.652 27.784 102.236 28.392C101.82 28.984 101.244 29.448 100.508 29.784C99.7724 30.12 98.9084 30.288 97.9164 30.288ZM111.469 30.288C110.125 30.288 108.949 29.984 107.941 29.376C106.933 28.768 106.149 27.944 105.589 26.904C105.029 25.864 104.749 24.712 104.749 23.448C104.749 22.136 105.029 20.976 105.589 19.968C106.165 18.944 106.941 18.136 107.917 17.544C108.909 16.952 110.013 16.656 111.229 16.656C112.253 16.656 113.149 16.824 113.917 17.16C114.701 17.496 115.365 17.96 115.909 18.552C116.453 19.144 116.869 19.824 117.157 20.592C117.445 21.344 117.589 22.16 117.589 23.04C117.589 23.264 117.573 23.496 117.541 23.736C117.525 23.976 117.485 24.184 117.421 24.36H107.34V21.96H115.645L114.157 23.088C114.301 22.352 114.261 21.696 114.037 21.12C113.829 20.544 113.477 20.088 112.981 19.752C112.501 19.416 111.917 19.248 111.229 19.248C110.573 19.248 109.989 19.416 109.477 19.752C108.965 20.072 108.573 20.552 108.301 21.192C108.045 21.816 107.949 22.576 108.013 23.472C107.949 24.272 108.053 24.984 108.325 25.608C108.613 26.216 109.029 26.688 109.573 27.024C110.133 27.36 110.773 27.528 111.493 27.528C112.213 27.528 112.821 27.376 113.317 27.072C113.829 26.768 114.229 26.36 114.517 25.848L117.061 27.096C116.805 27.72 116.405 28.272 115.861 28.752C115.317 29.232 114.669 29.608 113.917 29.88C113.181 30.152 112.365 30.288 111.469 30.288ZM119.972 30V11.832H123.116V19.512L122.684 19.056C122.988 18.272 123.484 17.68 124.172 17.28C124.876 16.864 125.692 16.656 126.62 16.656C127.58 16.656 128.428 16.864 129.164 17.28C129.916 17.696 130.5 18.28 130.916 19.032C131.332 19.768 131.54 20.624 131.54 21.6V30H128.396V22.344C128.396 21.768 128.284 21.272 128.06 20.856C127.836 20.44 127.524 20.12 127.124 19.896C126.74 19.656 126.284 19.536 125.756 19.536C125.244 19.536 124.788 19.656 124.388 19.896C123.988 20.12 123.676 20.44 123.452 20.856C123.228 21.272 123.116 21.768 123.116 22.344V30H119.972ZM138.854 30.288C137.846 30.288 136.966 30.064 136.214 29.616C135.478 29.168 134.91 28.544 134.51 27.744C134.126 26.944 133.934 26.008 133.934 24.936V16.944H137.078V24.672C137.078 25.216 137.182 25.696 137.39 26.112C137.614 26.512 137.926 26.832 138.326 27.072C138.742 27.296 139.206 27.408 139.718 27.408C140.23 27.408 140.686 27.296 141.086 27.072C141.486 26.832 141.798 26.504 142.022 26.088C142.246 25.672 142.358 25.176 142.358 24.6V16.944H145.502V30H142.526V27.432L142.79 27.888C142.486 28.688 141.982 29.288 141.278 29.688C140.59 30.088 139.782 30.288 138.854 30.288ZM148.425 30V16.944H151.377V19.512L151.137 19.056C151.441 18.272 151.937 17.68 152.625 17.28C153.329 16.864 154.145 16.656 155.073 16.656C156.033 16.656 156.881 16.864 157.617 17.28C158.369 17.696 158.953 18.28 159.369 19.032C159.785 19.768 159.993 20.624 159.993 21.6V30H156.849V22.344C156.849 21.768 156.737 21.272 156.513 20.856C156.289 20.44 155.977 20.12 155.577 19.896C155.193 19.656 154.737 19.536 154.209 19.536C153.697 19.536 153.241 19.656 152.841 19.896C152.441 20.12 152.129 20.44 151.905 20.856C151.681 21.272 151.569 21.768 151.569 22.344V30H148.425ZM168.604 30.144C167.132 30.144 165.988 29.744 165.172 28.944C164.372 28.128 163.972 26.984 163.972 25.512V19.752H161.716V16.944H161.956C162.596 16.944 163.092 16.776 163.444 16.44C163.796 16.104 163.972 15.616 163.972 14.976V13.968H167.116V16.944H170.116V19.752H167.116V25.344C167.116 25.776 167.188 26.144 167.332 26.448C167.492 26.752 167.732 26.984 168.052 27.144C168.388 27.304 168.812 27.384 169.324 27.384C169.436 27.384 169.564 27.376 169.708 27.36C169.868 27.344 170.02 27.328 170.164 27.312V30C169.94 30.032 169.684 30.064 169.396 30.096C169.108 30.128 168.844 30.144 168.604 30.144ZM178.64 30.288C177.296 30.288 176.12 29.984 175.112 29.376C174.104 28.768 173.32 27.944 172.76 26.904C172.2 25.864 171.92 24.712 171.92 23.448C171.92 22.136 172.2 20.976 172.76 19.968C173.336 18.944 174.112 18.136 175.088 17.544C176.08 16.952 177.184 16.656 178.4 16.656C179.424 16.656 180.32 16.824 181.088 17.16C181.872 17.496 182.536 17.96 183.08 18.552C183.624 19.144 184.04 19.824 184.328 20.592C184.616 21.344 184.76 22.16 184.76 23.04C184.76 23.264 184.744 23.496 184.712 23.736C184.696 23.976 184.656 24.184 184.592 24.36H174.512V21.96H182.816L181.328 23.088C181.472 22.352 181.432 21.696 181.208 21.12C181 20.544 180.648 20.088 180.152 19.752C179.672 19.416 179.088 19.248 178.4 19.248C177.744 19.248 177.16 19.416 176.648 19.752C176.136 20.072 175.744 20.552 175.472 21.192C175.216 21.816 175.12 22.576 175.184 23.472C175.12 24.272 175.224 24.984 175.496 25.608C175.784 26.216 176.2 26.688 176.744 27.024C177.304 27.36 177.944 27.528 178.664 27.528C179.384 27.528 179.992 27.376 180.488 27.072C181 26.768 181.4 26.36 181.688 25.848L184.232 27.096C183.976 27.72 183.576 28.272 183.032 28.752C182.488 29.232 181.84 29.608 181.088 29.88C180.352 30.152 179.536 30.288 178.64 30.288ZM187.144 30V16.944H190.096V19.848L189.856 19.416C190.16 18.44 190.632 17.76 191.272 17.376C191.928 16.992 192.712 16.8 193.624 16.8H194.392V19.584H193.264C192.368 19.584 191.648 19.864 191.104 20.424C190.56 20.968 190.288 21.736 190.288 22.728V30H187.144ZM201.088 30.288C199.696 30.288 198.48 29.96 197.44 29.304C196.416 28.632 195.712 27.728 195.328 26.592L197.68 25.464C198.016 26.2 198.48 26.776 199.072 27.192C199.68 27.608 200.352 27.816 201.088 27.816C201.664 27.816 202.12 27.688 202.456 27.432C202.792 27.176 202.96 26.84 202.96 26.424C202.96 26.168 202.888 25.96 202.744 25.8C202.616 25.624 202.432 25.48 202.192 25.368C201.968 25.24 201.72 25.136 201.448 25.056L199.312 24.456C198.208 24.136 197.368 23.648 196.792 22.992C196.232 22.336 195.952 21.56 195.952 20.664C195.952 19.864 196.152 19.168 196.552 18.576C196.968 17.968 197.536 17.496 198.256 17.16C198.992 16.824 199.832 16.656 200.776 16.656C202.008 16.656 203.096 16.952 204.04 17.544C204.984 18.136 205.656 18.968 206.056 20.04L203.656 21.168C203.432 20.576 203.056 20.104 202.528 19.752C202 19.4 201.408 19.224 200.752 19.224C200.224 19.224 199.808 19.344 199.504 19.584C199.2 19.824 199.048 20.136 199.048 20.52C199.048 20.76 199.112 20.968 199.24 21.144C199.368 21.32 199.544 21.464 199.768 21.576C200.008 21.688 200.28 21.792 200.584 21.888L202.672 22.512C203.744 22.832 204.568 23.312 205.144 23.952C205.736 24.592 206.032 25.376 206.032 26.304C206.032 27.088 205.824 27.784 205.408 28.392C204.992 28.984 204.416 29.448 203.68 29.784C202.944 30.12 202.08 30.288 201.088 30.288Z" fill="#0E0854"/>
<g clip-path="url(#clip0_33_41)">
<path d="M33.3335 15.6137L26.2229 10.083C25.5989 9.59755 24.8308 9.33398 24.0402 9.33398C23.2496 9.33398 22.4816 9.59755 21.8575 10.083L14.7455 15.6137C14.3181 15.9461 13.9723 16.3717 13.7345 16.8581C13.4968 17.3446 13.3733 17.8789 13.3735 18.4203V28.0203C13.3735 28.7276 13.6545 29.4059 14.1546 29.906C14.6547 30.4061 15.333 30.687 16.0402 30.687H32.0402C32.7474 30.687 33.4257 30.4061 33.9258 29.906C34.4259 29.4059 34.7069 28.7276 34.7069 28.0203V18.4203C34.7069 17.323 34.2002 16.287 33.3335 15.6137Z" fill="#141B34" stroke="#141B34" stroke-width="3" stroke-linecap="round" stroke-linejoin="round"/>
<path d="M29.3332 24C26.3865 25.7773 21.6105 25.7773 18.6665 24" stroke="#F9FAFB" stroke-width="3" stroke-linecap="round" stroke-linejoin="round"/>
</g>
<defs>
<clipPath id="clip0_33_41">
<rect width="32" height="32" fill="white" transform="translate(8 4)"/>
</clipPath>
</defs>
</svg>
