<svg width="104" height="18" viewBox="0 0 104 18" fill="none" xmlns="http://www.w3.org/2000/svg">
<path fill-rule="evenodd" clip-rule="evenodd" d="M9.53019 1.71959C9.38954 1.57899 9.19881 1.5 8.99994 1.5C8.80106 1.5 8.61033 1.57899 8.46969 1.71959L3.21969 6.96959L1.71969 8.46959C1.64806 8.53877 1.59092 8.62153 1.55161 8.71304C1.51231 8.80454 1.49162 8.90295 1.49075 9.00254C1.48989 9.10212 1.50886 9.20088 1.54657 9.29306C1.58428 9.38523 1.63997 9.46897 1.71039 9.53939C1.78081 9.60981 1.86455 9.66549 1.95672 9.70321C2.0489 9.74092 2.14766 9.75989 2.24724 9.75903C2.34682 9.75816 2.44524 9.73747 2.53674 9.69817C2.62825 9.65886 2.711 9.60172 2.78019 9.53009L2.99994 9.31034V14.2498C2.99994 14.8466 3.23699 15.4189 3.65895 15.8408C4.08091 16.2628 4.6532 16.4998 5.24994 16.4998H12.7499C13.3467 16.4998 13.919 16.2628 14.3409 15.8408C14.7629 15.4189 14.9999 14.8466 14.9999 14.2498V9.31034L15.2197 9.53009C15.3611 9.66671 15.5506 9.7423 15.7472 9.74059C15.9439 9.73889 16.132 9.66001 16.2711 9.52095C16.4101 9.3819 16.489 9.19379 16.4907 8.99714C16.4924 8.80049 16.4168 8.61104 16.2802 8.46959L9.53019 1.71959Z" fill="white"/>
<path d="M23.876 13.5V5.1H25.172V8.7H28.7V5.1H29.996V13.5H28.7V9.876H25.172V13.5H23.876ZM34.559 13.668C33.967 13.668 33.439 13.548 32.975 13.308C32.519 13.06 32.159 12.708 31.895 12.252C31.631 11.796 31.499 11.256 31.499 10.632V10.452C31.499 9.828 31.631 9.292 31.895 8.844C32.159 8.388 32.519 8.036 32.975 7.788C33.439 7.54 33.967 7.416 34.559 7.416C35.151 7.416 35.679 7.54 36.143 7.788C36.607 8.036 36.971 8.388 37.235 8.844C37.499 9.292 37.631 9.828 37.631 10.452V10.632C37.631 11.256 37.499 11.796 37.235 12.252C36.971 12.708 36.607 13.06 36.143 13.308C35.679 13.548 35.151 13.668 34.559 13.668ZM34.559 12.564C35.103 12.564 35.543 12.392 35.879 12.048C36.223 11.696 36.395 11.212 36.395 10.596V10.488C36.395 9.872 36.227 9.392 35.891 9.048C35.555 8.696 35.111 8.52 34.559 8.52C34.023 8.52 33.583 8.696 33.239 9.048C32.903 9.392 32.735 9.872 32.735 10.488V10.596C32.735 11.212 32.903 11.696 33.239 12.048C33.583 12.392 34.023 12.564 34.559 12.564ZM41.4378 13.608C40.9898 13.608 40.5898 13.508 40.2378 13.308C39.8858 13.108 39.6098 12.824 39.4098 12.456C39.2098 12.088 39.1098 11.648 39.1098 11.136V7.584H40.3458V11.052C40.3458 11.564 40.4738 11.944 40.7298 12.192C40.9858 12.432 41.3418 12.552 41.7978 12.552C42.3018 12.552 42.7058 12.384 43.0098 12.048C43.3218 11.704 43.4778 11.212 43.4778 10.572V7.584H44.7138V13.5H43.5018V12.612H43.3098C43.1978 12.852 42.9978 13.08 42.7098 13.296C42.4218 13.504 41.9978 13.608 41.4378 13.608ZM48.9649 13.668C48.2129 13.668 47.5889 13.5 47.0929 13.164C46.5969 12.828 46.2929 12.32 46.1809 11.64L47.3329 11.364C47.3969 11.692 47.5049 11.952 47.6569 12.144C47.8089 12.336 47.9969 12.472 48.2209 12.552C48.4529 12.632 48.7009 12.672 48.9649 12.672C49.3569 12.672 49.6569 12.596 49.8649 12.444C50.0809 12.292 50.1889 12.096 50.1889 11.856C50.1889 11.616 50.0889 11.44 49.8889 11.328C49.6889 11.216 49.3929 11.124 49.0009 11.052L48.5929 10.98C48.1929 10.908 47.8289 10.804 47.5009 10.668C47.1729 10.532 46.9129 10.344 46.7209 10.104C46.5289 9.864 46.4329 9.556 46.4329 9.18C46.4329 8.62 46.6409 8.188 47.0569 7.884C47.4729 7.572 48.0249 7.416 48.7129 7.416C49.3769 7.416 49.9209 7.568 50.3449 7.872C50.7769 8.168 51.0569 8.572 51.1849 9.084L50.0329 9.408C49.9609 9.048 49.8089 8.796 49.5769 8.652C49.3449 8.5 49.0569 8.424 48.7129 8.424C48.3769 8.424 48.1129 8.488 47.9209 8.616C47.7289 8.736 47.6329 8.908 47.6329 9.132C47.6329 9.372 47.7249 9.548 47.9089 9.66C48.1009 9.772 48.3569 9.856 48.6769 9.912L49.0969 9.984C49.5209 10.056 49.9089 10.156 50.2609 10.284C50.6129 10.412 50.8889 10.596 51.0889 10.836C51.2969 11.076 51.4009 11.396 51.4009 11.796C51.4009 12.388 51.1809 12.848 50.7409 13.176C50.3009 13.504 49.7089 13.668 48.9649 13.668ZM55.5576 13.668C54.9576 13.668 54.4336 13.544 53.9856 13.296C53.5376 13.04 53.1856 12.684 52.9296 12.228C52.6816 11.764 52.5576 11.228 52.5576 10.62V10.476C52.5576 9.86 52.6816 9.324 52.9296 8.868C53.1776 8.404 53.5216 8.048 53.9616 7.8C54.4096 7.544 54.9256 7.416 55.5096 7.416C56.0776 7.416 56.5736 7.544 56.9976 7.8C57.4296 8.048 57.7656 8.396 58.0056 8.844C58.2456 9.292 58.3656 9.816 58.3656 10.416V10.884H53.8176C53.8336 11.404 54.0056 11.82 54.3336 12.132C54.6696 12.436 55.0856 12.588 55.5816 12.588C56.0456 12.588 56.3936 12.484 56.6256 12.276C56.8656 12.068 57.0496 11.828 57.1776 11.556L58.1976 12.084C58.0856 12.308 57.9216 12.544 57.7056 12.792C57.4976 13.04 57.2216 13.248 56.8776 13.416C56.5336 13.584 56.0936 13.668 55.5576 13.668ZM53.8296 9.936H57.1056C57.0736 9.488 56.9136 9.14 56.6256 8.892C56.3376 8.636 55.9616 8.508 55.4976 8.508C55.0336 8.508 54.6536 8.636 54.3576 8.892C54.0696 9.14 53.8936 9.488 53.8296 9.936ZM59.8534 13.5V5.1H61.0894V8.424H61.2814C61.3614 8.272 61.4734 8.124 61.6174 7.98C61.7694 7.836 61.9654 7.72 62.2054 7.632C62.4534 7.536 62.7654 7.488 63.1414 7.488C63.5894 7.488 63.9854 7.588 64.3294 7.788C64.6814 7.988 64.9574 8.272 65.1574 8.64C65.3574 9 65.4574 9.436 65.4574 9.948V13.5H64.2214V10.044C64.2214 9.532 64.0934 9.156 63.8374 8.916C63.5814 8.668 63.2294 8.544 62.7814 8.544C62.2694 8.544 61.8574 8.712 61.5454 9.048C61.2414 9.384 61.0894 9.872 61.0894 10.512V13.5H59.8534ZM69.4105 13.608C68.9625 13.608 68.5625 13.508 68.2105 13.308C67.8585 13.108 67.5825 12.824 67.3825 12.456C67.1825 12.088 67.0825 11.648 67.0825 11.136V7.584H68.3185V11.052C68.3185 11.564 68.4465 11.944 68.7025 12.192C68.9585 12.432 69.3145 12.552 69.7705 12.552C70.2745 12.552 70.6785 12.384 70.9825 12.048C71.2945 11.704 71.4505 11.212 71.4505 10.572V7.584H72.6865V13.5H71.4745V12.612H71.2825C71.1705 12.852 70.9705 13.08 70.6825 13.296C70.3945 13.504 69.9705 13.608 69.4105 13.608ZM74.5136 13.5V7.584H75.7256V8.472H75.9176C76.0296 8.232 76.2296 8.008 76.5176 7.8C76.8056 7.592 77.2336 7.488 77.8016 7.488C78.2496 7.488 78.6456 7.588 78.9896 7.788C79.3416 7.988 79.6176 8.272 79.8176 8.64C80.0176 9 80.1176 9.436 80.1176 9.948V13.5H78.8816V10.044C78.8816 9.532 78.7536 9.156 78.4976 8.916C78.2416 8.668 77.8896 8.544 77.4416 8.544C76.9296 8.544 76.5176 8.712 76.2056 9.048C75.9016 9.384 75.7496 9.872 75.7496 10.512V13.5H74.5136ZM83.9523 13.5C83.5923 13.5 83.3043 13.392 83.0883 13.176C82.8803 12.96 82.7763 12.672 82.7763 12.312V8.628H81.1443V7.584H82.7763V5.628H84.0123V7.584H85.7763V8.628H84.0123V12.096C84.0123 12.336 84.1243 12.456 84.3483 12.456H85.5843V13.5H83.9523ZM89.7295 13.668C89.1295 13.668 88.6055 13.544 88.1575 13.296C87.7095 13.04 87.3575 12.684 87.1015 12.228C86.8535 11.764 86.7295 11.228 86.7295 10.62V10.476C86.7295 9.86 86.8535 9.324 87.1015 8.868C87.3495 8.404 87.6935 8.048 88.1335 7.8C88.5815 7.544 89.0975 7.416 89.6815 7.416C90.2495 7.416 90.7455 7.544 91.1695 7.8C91.6015 8.048 91.9375 8.396 92.1775 8.844C92.4175 9.292 92.5375 9.816 92.5375 10.416V10.884H87.9895C88.0055 11.404 88.1775 11.82 88.5055 12.132C88.8415 12.436 89.2575 12.588 89.7535 12.588C90.2175 12.588 90.5655 12.484 90.7975 12.276C91.0375 12.068 91.2215 11.828 91.3495 11.556L92.3695 12.084C92.2575 12.308 92.0935 12.544 91.8775 12.792C91.6695 13.04 91.3935 13.248 91.0495 13.416C90.7055 13.584 90.2655 13.668 89.7295 13.668ZM88.0015 9.936H91.2775C91.2455 9.488 91.0855 9.14 90.7975 8.892C90.5095 8.636 90.1335 8.508 89.6695 8.508C89.2055 8.508 88.8255 8.636 88.5295 8.892C88.2415 9.14 88.0655 9.488 88.0015 9.936ZM94.0253 13.5V7.584H95.2373V8.28H95.4293C95.5253 8.032 95.6773 7.852 95.8853 7.74C96.1013 7.62 96.3653 7.56 96.6773 7.56H97.3853V8.676H96.6293C96.2293 8.676 95.9013 8.788 95.6453 9.012C95.3893 9.228 95.2613 9.564 95.2613 10.02V13.5H94.0253ZM100.961 13.668C100.209 13.668 99.585 13.5 99.089 13.164C98.593 12.828 98.289 12.32 98.177 11.64L99.329 11.364C99.393 11.692 99.501 11.952 99.653 12.144C99.805 12.336 99.993 12.472 100.217 12.552C100.449 12.632 100.697 12.672 100.961 12.672C101.353 12.672 101.653 12.596 101.861 12.444C102.077 12.292 102.185 12.096 102.185 11.856C102.185 11.616 102.085 11.44 101.885 11.328C101.685 11.216 101.389 11.124 100.997 11.052L100.589 10.98C100.189 10.908 99.825 10.804 99.497 10.668C99.169 10.532 98.909 10.344 98.717 10.104C98.525 9.864 98.429 9.556 98.429 9.18C98.429 8.62 98.637 8.188 99.053 7.884C99.469 7.572 100.021 7.416 100.709 7.416C101.373 7.416 101.917 7.568 102.341 7.872C102.773 8.168 103.053 8.572 103.181 9.084L102.029 9.408C101.957 9.048 101.805 8.796 101.573 8.652C101.341 8.5 101.053 8.424 100.709 8.424C100.373 8.424 100.109 8.488 99.917 8.616C99.725 8.736 99.629 8.908 99.629 9.132C99.629 9.372 99.721 9.548 99.905 9.66C100.097 9.772 100.353 9.856 100.673 9.912L101.093 9.984C101.517 10.056 101.905 10.156 102.257 10.284C102.609 10.412 102.885 10.596 103.085 10.836C103.293 11.076 103.397 11.396 103.397 11.796C103.397 12.388 103.177 12.848 102.737 13.176C102.297 13.504 101.705 13.668 100.961 13.668Z" fill="white"/>
</svg>
